<svg width="56" height="56" viewBox="0 0 56 56" fill="none" xmlns="http://www.w3.org/2000/svg">
<g clip-path="url(#clip0_115_8539)">
<path d="M49 0H7C3.13401 0 0 3.13401 0 7V49C0 52.866 3.13401 56 7 56H49C52.866 56 56 52.866 56 49V7C56 3.13401 52.866 0 49 0Z" fill="#213147"/>
<path d="M31.9439 26.5354L34.5147 22.1744L41.4412 32.9649L41.4447 35.0352L41.4237 20.7849C41.4158 20.6131 41.3664 20.4457 41.2799 20.297C41.1934 20.1483 41.0722 20.0227 40.9267 19.9309L28.4527 12.7559C28.2839 12.6767 28.0977 12.6415 27.9116 12.6537C27.7255 12.666 27.5456 12.7252 27.3887 12.8259L27.3449 12.8522L15.2384 19.8697L15.1912 19.8889C15.0141 19.9694 14.8624 20.0967 14.7523 20.2571C14.6422 20.4174 14.5779 20.6048 14.5664 20.7989L14.5839 32.4137L21.0379 22.4107C21.8499 21.0842 23.6192 20.6572 25.2624 20.6817L27.1927 20.7324L15.8282 38.9552L17.1669 39.7252L28.6679 20.7482L33.7499 20.7307L22.2804 40.1872L27.0597 42.9347L27.6319 43.2637C27.8734 43.3617 28.1569 43.3687 28.4019 43.2794L41.0492 35.9487L38.6324 37.3504L31.9439 26.5354ZM32.9239 40.6597L28.0957 33.0822L31.0427 28.0824L37.3847 38.0749L32.9239 40.6597Z" fill="#213147"/>
<path d="M28.0977 33.0851L32.9242 40.6626L37.3849 38.0778L31.0447 28.0853L28.0977 33.0851ZM41.4467 35.0346L41.4432 32.9643L34.5132 22.1738L31.9442 26.5366L38.6327 37.3516L41.0512 35.9516C41.1685 35.8568 41.2644 35.7382 41.3325 35.6037C41.4007 35.4692 41.4396 35.3217 41.4467 35.1711V35.0346Z" fill="#12AAFF"/>
<path d="M12.4141 36.9894L15.8283 38.9564L27.1928 20.7319L25.2643 20.6794C23.6193 20.6584 21.8518 21.0854 21.0381 22.4119L14.5841 32.4132L12.4141 35.7487V36.9894ZM33.7518 20.7302L28.6681 20.7477L17.1688 39.7282L21.1886 42.0417L22.2806 40.1884L33.7518 20.7302Z" fill="white"/>
<path d="M43.5864 20.7081C43.5632 20.1832 43.4127 19.6719 43.1477 19.2182C42.8828 18.7646 42.5114 18.3822 42.0657 18.1041L29.4307 10.8381C28.9792 10.6163 28.4829 10.501 27.9799 10.501C27.4769 10.501 26.9806 10.6163 26.5292 10.8381C26.4242 10.8906 14.2407 17.9571 14.2407 17.9571C14.0715 18.0376 13.9105 18.1327 13.7577 18.2424C12.9527 18.8199 12.4627 19.7159 12.4102 20.7011V35.7511L14.5819 32.4156L14.5644 20.8026C14.5739 20.6434 14.6189 20.4883 14.6961 20.3487C14.7733 20.2091 14.8808 20.0885 15.0107 19.9959C15.0684 19.9539 27.4584 12.7824 27.4987 12.7614C27.6472 12.6894 27.8101 12.6517 27.9751 12.6511C28.1402 12.6505 28.3033 12.687 28.4524 12.7579L40.9247 19.9329C41.2204 20.1201 41.4042 20.4386 41.4217 20.7869V35.1719C41.4185 35.321 41.3837 35.4677 41.3194 35.6023C41.2551 35.7369 41.1629 35.8562 41.0489 35.9524L38.6304 37.3524L37.3827 38.0769L32.9219 40.6616L28.3999 43.2831C28.1497 43.3706 27.8763 43.365 27.6299 43.2674L22.2784 40.1891L21.1864 42.0441L25.9954 44.8126L26.7567 45.2379C27.0997 45.4041 27.5914 45.5004 28.0342 45.5004C28.4425 45.5004 28.8351 45.4263 29.2119 45.2781L42.3492 37.6709C43.1017 37.0864 43.5462 36.2061 43.5864 35.2506V20.7081Z" fill="#9DCCED"/>
</g>
<defs>
<clipPath id="clip0_115_8539">
<rect width="56" height="56" rx="28" fill="white"/>
</clipPath>
</defs>
</svg>
