<svg width="56" height="56" viewBox="0 0 56 56" fill="none" xmlns="http://www.w3.org/2000/svg">
<g clip-path="url(#clip0_115_8511)">
<path d="M49 0H7C3.13401 0 0 3.13401 0 7V49C0 52.866 3.13401 56 7 56H49C52.866 56 56 52.866 56 49V7C56 3.13401 52.866 0 49 0Z" fill="#E84142"/>
<path d="M35.7471 29.0336C36.2084 28.2479 37.3539 28.2479 37.8103 29.0336L42.7124 37.4083C43.1737 38.194 42.5957 39.1723 41.6782 39.1723H31.874C30.9564 39.1723 30.3835 38.194 30.8399 37.4083L35.742 29.0336H35.7471Z" fill="white"/>
<path d="M32.7859 23.4571C33.232 22.6764 33.232 21.7132 32.7859 20.9275L28.766 13.9165C28.3148 13.1307 27.1894 13.1307 26.7382 13.9165L13.284 37.403C12.8328 38.1888 13.3955 39.1721 14.2978 39.1721H22.3328C23.2302 39.1721 24.0565 38.6907 24.5026 37.91L32.7808 23.4571H32.7859Z" fill="white"/>
</g>
<defs>
<clipPath id="clip0_115_8511">
<rect width="56" height="56" rx="28" fill="white"/>
</clipPath>
</defs>
</svg>
