<svg width="56" height="56" viewBox="0 0 56 56" fill="none" xmlns="http://www.w3.org/2000/svg">
<g clip-path="url(#clip0_115_8548)">
<path d="M49 0H7C3.13401 0 0 3.13401 0 7V49C0 52.866 3.13401 56 7 56H49C52.866 56 56 52.866 56 49V7C56 3.13401 52.866 0 49 0Z" fill="#F0B90B"/>
<path d="M16.4706 27.9996L16.4881 34.7686L22.2421 38.1531V42.1168L13.1246 36.7688V26.0203L16.4706 27.9996ZM16.4706 21.2288V25.1751L13.1211 23.1923V19.2496L16.4706 17.2686L19.8376 19.2496L16.4706 21.2288ZM24.6431 19.2496L27.9943 17.2686L31.3596 19.2496L27.9943 21.2306L24.6431 19.2496Z" fill="white"/>
<path d="M18.8906 33.3651V29.4031L22.2401 31.3841V35.3286L18.8906 33.3651ZM24.6429 39.5723L27.9924 41.5551L31.3594 39.5723V43.5186L27.9924 45.4996L24.6429 43.5186V39.5723ZM36.1631 19.2496L39.5126 17.2686L42.8796 19.2496V23.1941L39.5126 25.1768V21.2271L36.1631 19.2496ZM39.5126 34.7721L39.5301 27.9996L42.8814 26.0186V36.7688L33.7639 42.1168V38.1496L39.5126 34.7721Z" fill="white"/>
<path d="M37.1073 33.369L33.7578 35.3325V31.388L37.1073 29.4053V33.369Z" fill="white"/>
<path d="M37.1116 22.6345L37.1291 26.5965L31.3611 29.9827V36.7675L28.0116 38.731L24.6604 36.7675V29.9827L18.8924 26.5965V22.6345L22.2576 20.6517L27.9906 24.0538L33.7586 20.65L37.1256 22.6327L37.1116 22.6345ZM18.8906 15.8673L27.9924 10.5L37.1099 15.8673L33.7604 17.8483L27.9924 14.4463L22.2401 17.8483L18.8906 15.8673Z" fill="white"/>
</g>
<defs>
<clipPath id="clip0_115_8548">
<rect width="56" height="56" rx="28" fill="white"/>
</clipPath>
</defs>
</svg>
