<svg width="169" height="48" viewBox="0 0 169 48" fill="none" xmlns="http://www.w3.org/2000/svg">
<path d="M21.5721 45.5484C21.6929 45.7168 21.7554 45.9201 21.7501 46.1273C21.7448 46.3345 21.6721 46.5344 21.5429 46.6965C21.4137 46.8586 21.2352 46.9741 21.0344 47.0255C20.8336 47.0769 20.6215 47.0614 20.4303 46.9813C15.2581 44.7882 9.21484 40.041 9.21484 31.8692C9.21484 21.8553 19.1981 18.0357 21.6398 10.233C22.4413 7.78375 22.8191 5.21578 22.7571 2.63951C22.7533 2.4917 22.7961 2.34643 22.8794 2.22429C22.9628 2.10216 23.0825 2.00935 23.2215 1.95903C23.3605 1.90871 23.5119 1.90343 23.6541 1.94393C23.7963 1.98443 23.9221 2.06867 24.0138 2.18469C26.8616 5.71205 28.4897 10.0673 28.6541 14.5978C28.9759 21.4988 21.5894 27.0448 19.1508 32.6246C16.9578 37.7275 19.4947 42.6731 21.5721 45.5484Z" fill="url(#paint0_linear_147_7205)"/>
<path d="M39.2697 41.3904C39.2697 42.2921 38.9116 43.1568 38.274 43.7944C37.6364 44.432 36.7717 44.7902 35.87 44.7902C34.9683 44.7902 34.1036 44.432 33.466 43.7944C32.8285 43.1568 32.4703 42.2921 32.4703 41.3904C32.4703 41.1176 32.5057 40.8488 32.5765 40.5839L27.4869 38.0485C26.8637 38.6349 26.0402 38.9613 25.1845 38.9613C24.2829 38.9613 23.4183 38.6032 22.7808 37.9657C22.1433 37.3282 21.7852 36.4635 21.7852 35.562C21.7852 34.6604 22.1433 33.7958 22.7808 33.1583C23.4183 32.5208 24.2829 32.1626 25.1845 32.1626C26.0406 32.1626 26.8637 32.4892 27.4869 33.0754L32.5765 30.5401C32.5061 30.277 32.4701 30.0059 32.4695 29.7335C32.4696 29.0613 32.6691 28.4041 33.0427 27.8452C33.4163 27.2863 33.9472 26.8508 34.5683 26.5936C35.1894 26.3364 35.8729 26.2691 36.5322 26.4003C37.1915 26.5315 37.7972 26.8552 38.2725 27.3306C38.7479 27.806 39.0716 28.4116 39.2028 29.0709C39.334 29.7303 39.2668 30.4137 39.0096 31.0348C38.7524 31.6559 38.3168 32.1868 37.7579 32.5604C37.199 32.934 36.5419 33.1335 35.8696 33.1336C35.0139 33.1337 34.1904 32.8072 33.5672 32.2209L28.4776 34.7554C28.6193 35.2842 28.6193 35.8405 28.4776 36.3685L33.5672 38.9039C34.1904 38.3175 35.0139 37.9911 35.8696 37.9911C36.7712 37.9911 37.6358 38.3492 38.2733 38.9867C38.9108 39.6242 39.2697 40.4889 39.2697 41.3904Z" fill="url(#paint1_linear_147_7205)"/>
<path d="M61.7216 33V15.5455H64.8835V30.3494H72.571V33H61.7216ZM75.659 33V19.9091H78.7442V33H75.659ZM77.2101 18.0511C76.7215 18.0511 76.301 17.8892 75.9487 17.5653C75.5965 17.2358 75.4203 16.8409 75.4203 16.3807C75.4203 15.9148 75.5965 15.5199 75.9487 15.196C76.301 14.8665 76.7215 14.7017 77.2101 14.7017C77.7044 14.7017 78.1249 14.8665 78.4715 15.196C78.8237 15.5199 78.9999 15.9148 78.9999 16.3807C78.9999 16.8409 78.8237 17.2358 78.4715 17.5653C78.1249 17.8892 77.7044 18.0511 77.2101 18.0511ZM91.1326 37.9091V30.9375H91.0047C90.8457 31.2557 90.6155 31.5937 90.3144 31.9517C90.0133 32.304 89.6155 32.6051 89.1212 32.8551C88.6269 33.1051 88.0047 33.2301 87.2547 33.2301C86.2263 33.2301 85.3059 32.9659 84.4934 32.4375C83.6809 31.9091 83.0388 31.142 82.5672 30.1364C82.0957 29.1307 81.8599 27.9091 81.8599 26.4716C81.8599 25.017 82.0985 23.7898 82.5758 22.7898C83.0587 21.7841 83.7093 21.0256 84.5275 20.5142C85.3457 19.9972 86.2576 19.7386 87.2633 19.7386C88.0303 19.7386 88.661 19.8693 89.1553 20.1307C89.6496 20.3864 90.0417 20.696 90.3314 21.0597C90.6212 21.4176 90.8457 21.7557 91.0047 22.0739H91.1922V19.9091H94.2263V37.9091H91.1326ZM88.1155 30.6989C88.7689 30.6989 89.3258 30.5227 89.786 30.1705C90.2462 29.8125 90.5957 29.3153 90.8343 28.679C91.0729 28.0426 91.1922 27.3011 91.1922 26.4545C91.1922 25.608 91.0729 24.8722 90.8343 24.2472C90.6013 23.6222 90.2547 23.1364 89.7945 22.7898C89.34 22.4432 88.7803 22.2699 88.1155 22.2699C87.428 22.2699 86.8542 22.4489 86.3939 22.8068C85.9337 23.1648 85.5871 23.6591 85.3542 24.2898C85.1212 24.9205 85.0047 25.642 85.0047 26.4545C85.0047 27.2727 85.1212 28.0028 85.3542 28.6449C85.5928 29.2812 85.9422 29.7841 86.4025 30.1534C86.8684 30.517 87.4394 30.6989 88.1155 30.6989ZM106.221 27.4943V19.9091H109.306V33H106.314V30.6733H106.178C105.882 31.4062 105.397 32.0057 104.721 32.4716C104.05 32.9375 103.223 33.1705 102.24 33.1705C101.382 33.1705 100.624 32.9801 99.9649 32.5994C99.3114 32.2131 98.8001 31.6534 98.4308 30.9205C98.0614 30.1818 97.8768 29.2898 97.8768 28.2443V19.9091H100.962V27.767C100.962 28.5966 101.189 29.2557 101.644 29.7443C102.098 30.233 102.695 30.4773 103.434 30.4773C103.888 30.4773 104.328 30.3665 104.755 30.1449C105.181 29.9233 105.53 29.5938 105.803 29.1562C106.081 28.7131 106.221 28.1591 106.221 27.4943ZM112.958 33V19.9091H116.044V33H112.958ZM114.509 18.0511C114.021 18.0511 113.6 17.8892 113.248 17.5653C112.896 17.2358 112.72 16.8409 112.72 16.3807C112.72 15.9148 112.896 15.5199 113.248 15.196C113.6 14.8665 114.021 14.7017 114.509 14.7017C115.004 14.7017 115.424 14.8665 115.771 15.196C116.123 15.5199 116.299 15.9148 116.299 16.3807C116.299 16.8409 116.123 17.2358 115.771 17.5653C115.424 17.8892 115.004 18.0511 114.509 18.0511ZM124.554 33.2301C123.526 33.2301 122.605 32.9659 121.793 32.4375C120.98 31.9091 120.338 31.142 119.867 30.1364C119.395 29.1307 119.159 27.9091 119.159 26.4716C119.159 25.017 119.398 23.7898 119.875 22.7898C120.358 21.7841 121.009 21.0256 121.827 20.5142C122.645 19.9972 123.557 19.7386 124.563 19.7386C125.33 19.7386 125.96 19.8693 126.455 20.1307C126.949 20.3864 127.341 20.696 127.631 21.0597C127.921 21.4176 128.145 21.7557 128.304 22.0739H128.432V15.5455H131.526V33H128.492V30.9375H128.304C128.145 31.2557 127.915 31.5937 127.614 31.9517C127.313 32.304 126.915 32.6051 126.421 32.8551C125.926 33.1051 125.304 33.2301 124.554 33.2301ZM125.415 30.6989C126.068 30.6989 126.625 30.5227 127.085 30.1705C127.546 29.8125 127.895 29.3153 128.134 28.679C128.372 28.0426 128.492 27.3011 128.492 26.4545C128.492 25.608 128.372 24.8722 128.134 24.2472C127.901 23.6222 127.554 23.1364 127.094 22.7898C126.639 22.4432 126.08 22.2699 125.415 22.2699C124.727 22.2699 124.154 22.4489 123.693 22.8068C123.233 23.1648 122.887 23.6591 122.654 24.2898C122.421 24.9205 122.304 25.642 122.304 26.4545C122.304 27.2727 122.421 28.0028 122.654 28.6449C122.892 29.2812 123.242 29.7841 123.702 30.1534C124.168 30.517 124.739 30.6989 125.415 30.6989ZM145.64 23.3693L142.827 23.6761C142.748 23.392 142.609 23.125 142.41 22.875C142.217 22.625 141.955 22.4233 141.626 22.2699C141.296 22.1165 140.893 22.0398 140.416 22.0398C139.773 22.0398 139.234 22.179 138.796 22.4574C138.364 22.7358 138.151 23.0966 138.157 23.5398C138.151 23.9205 138.291 24.2301 138.575 24.4688C138.864 24.7074 139.342 24.9034 140.006 25.0568L142.239 25.5341C143.478 25.8011 144.398 26.2244 145.001 26.804C145.609 27.3835 145.916 28.142 145.921 29.0795C145.916 29.9034 145.674 30.6307 145.197 31.2614C144.725 31.8864 144.069 32.375 143.228 32.7273C142.387 33.0795 141.421 33.2557 140.33 33.2557C138.728 33.2557 137.438 32.9205 136.461 32.25C135.484 31.5739 134.901 30.6335 134.714 29.429L137.722 29.1392C137.859 29.7301 138.148 30.1761 138.592 30.4773C139.035 30.7784 139.612 30.929 140.322 30.929C141.055 30.929 141.643 30.7784 142.086 30.4773C142.535 30.1761 142.759 29.804 142.759 29.3608C142.759 28.9858 142.614 28.6761 142.325 28.4318C142.041 28.1875 141.597 28 140.995 27.8693L138.762 27.4006C137.506 27.1392 136.577 26.6989 135.975 26.0795C135.373 25.4545 135.075 24.6648 135.08 23.7102C135.075 22.9034 135.293 22.2045 135.737 21.6136C136.185 21.017 136.808 20.5568 137.603 20.233C138.404 19.9034 139.327 19.7386 140.373 19.7386C141.907 19.7386 143.114 20.0653 143.995 20.7188C144.881 21.3722 145.43 22.2557 145.64 23.3693ZM149.082 33V15.5455H160.263V18.196H152.244V22.9347H159.496V25.5852H152.244V33H149.082ZM163.488 33V19.9091H166.573V33H163.488ZM165.039 18.0511C164.55 18.0511 164.13 17.8892 163.777 17.5653C163.425 17.2358 163.249 16.8409 163.249 16.3807C163.249 15.9148 163.425 15.5199 163.777 15.196C164.13 14.8665 164.55 14.7017 165.039 14.7017C165.533 14.7017 165.954 14.8665 166.3 15.196C166.652 15.5199 166.829 15.9148 166.829 16.3807C166.829 16.8409 166.652 17.2358 166.3 17.5653C165.954 17.8892 165.533 18.0511 165.039 18.0511Z" fill="#E5E5EA"/>
<defs>
<linearGradient id="paint0_linear_147_7205" x1="18.9392" y1="1.91558" x2="18.9392" y2="47.0545" gradientUnits="userSpaceOnUse">
<stop stop-color="#2DD4BF"/>
<stop offset="1" stop-color="#A96EFF" stop-opacity="0.8"/>
</linearGradient>
<linearGradient id="paint1_linear_147_7205" x1="30.5275" y1="26.3342" x2="30.5275" y2="44.7898" gradientUnits="userSpaceOnUse">
<stop stop-color="#2DD4BF"/>
<stop offset="1" stop-color="#C196FF" stop-opacity="0.8"/>
</linearGradient>
</defs>
</svg>
