<svg width="48" height="48" viewBox="0 0 48 48" fill="none" xmlns="http://www.w3.org/2000/svg">
<path d="M21.5721 45.5484C21.6929 45.7168 21.7554 45.9201 21.7501 46.1273C21.7448 46.3345 21.6721 46.5344 21.5429 46.6965C21.4137 46.8586 21.2352 46.9741 21.0344 47.0255C20.8336 47.0769 20.6215 47.0614 20.4303 46.9813C15.2581 44.7882 9.21484 40.041 9.21484 31.8692C9.21484 21.8553 19.1981 18.0357 21.6398 10.233C22.4413 7.78375 22.8191 5.21578 22.7571 2.63951C22.7533 2.4917 22.7961 2.34643 22.8794 2.22429C22.9628 2.10216 23.0825 2.00935 23.2215 1.95903C23.3605 1.90871 23.5119 1.90343 23.6541 1.94393C23.7963 1.98443 23.9221 2.06867 24.0138 2.18469C26.8616 5.71205 28.4897 10.0673 28.6541 14.5978C28.9759 21.4988 21.5894 27.0448 19.1508 32.6246C16.9578 37.7275 19.4947 42.6731 21.5721 45.5484Z" fill="url(#paint0_linear_147_7206)"/>
<path d="M39.2697 41.3904C39.2697 42.2921 38.9116 43.1568 38.274 43.7944C37.6364 44.432 36.7717 44.7902 35.87 44.7902C34.9683 44.7902 34.1036 44.432 33.466 43.7944C32.8285 43.1568 32.4703 42.2921 32.4703 41.3904C32.4703 41.1176 32.5057 40.8488 32.5765 40.5839L27.4869 38.0485C26.8637 38.6349 26.0402 38.9613 25.1845 38.9613C24.2829 38.9613 23.4183 38.6032 22.7808 37.9657C22.1433 37.3282 21.7852 36.4635 21.7852 35.562C21.7852 34.6604 22.1433 33.7958 22.7808 33.1583C23.4183 32.5208 24.2829 32.1626 25.1845 32.1626C26.0406 32.1626 26.8637 32.4892 27.4869 33.0754L32.5765 30.5401C32.5061 30.277 32.4701 30.0059 32.4695 29.7335C32.4696 29.0613 32.6691 28.4041 33.0427 27.8452C33.4163 27.2863 33.9472 26.8508 34.5683 26.5936C35.1894 26.3364 35.8729 26.2691 36.5322 26.4003C37.1915 26.5315 37.7972 26.8552 38.2725 27.3306C38.7479 27.806 39.0716 28.4116 39.2028 29.0709C39.334 29.7303 39.2668 30.4137 39.0096 31.0348C38.7524 31.6559 38.3168 32.1868 37.7579 32.5604C37.199 32.934 36.5419 33.1335 35.8696 33.1336C35.0139 33.1337 34.1904 32.8072 33.5672 32.2209L28.4776 34.7554C28.6193 35.2842 28.6193 35.8405 28.4776 36.3685L33.5672 38.9039C34.1904 38.3175 35.0139 37.9911 35.8696 37.9911C36.7712 37.9911 37.6358 38.3492 38.2733 38.9867C38.9108 39.6242 39.2697 40.4889 39.2697 41.3904Z" fill="url(#paint1_linear_147_7206)"/>
<defs>
<linearGradient id="paint0_linear_147_7206" x1="18.9392" y1="1.91558" x2="18.9392" y2="47.0545" gradientUnits="userSpaceOnUse">
<stop stop-color="#2DD4BF"/>
<stop offset="1" stop-color="#A96EFF" stop-opacity="0.8"/>
</linearGradient>
<linearGradient id="paint1_linear_147_7206" x1="30.5275" y1="26.3342" x2="30.5275" y2="44.7898" gradientUnits="userSpaceOnUse">
<stop stop-color="#2DD4BF"/>
<stop offset="1" stop-color="#C196FF" stop-opacity="0.8"/>
</linearGradient>
</defs>
</svg>
