<svg width="56" height="56" viewBox="0 0 56 56" fill="none" xmlns="http://www.w3.org/2000/svg">
<g clip-path="url(#clip0_115_8557)">
<path d="M49 0H7C3.13401 0 0 3.13401 0 7V49C0 52.866 3.13401 56 7 56H49C52.866 56 56 52.866 56 49V7C56 3.13401 52.866 0 49 0Z" fill="url(#paint0_linear_115_8557)"/>
<path d="M35.637 34.0204L43.1095 29.4616C43.3067 29.3362 43.4688 29.1629 43.5808 28.9579C43.6928 28.7529 43.751 28.5228 43.75 28.2891V19.1769C43.751 18.9433 43.6928 18.7132 43.5808 18.5081C43.4688 18.3031 43.3067 18.1298 43.1095 18.0044L35.637 13.4474C35.4443 13.3292 35.2226 13.2666 34.9965 13.2666C34.7704 13.2666 34.5487 13.3292 34.356 13.4474L26.8835 18.0026C26.6864 18.128 26.5242 18.3013 26.4122 18.5064C26.3002 18.7114 26.242 18.9415 26.243 19.1751V35.4624L21.0035 38.6561L15.764 35.4624V29.0731L21.0035 25.8794L24.458 27.9864V23.6989L21.644 21.9839C21.451 21.8666 21.2294 21.8046 21.0035 21.8046C20.7776 21.8046 20.5561 21.8666 20.363 21.9839L12.8905 26.5391C12.6934 26.6645 12.5312 26.8378 12.4192 27.0429C12.3072 27.2479 12.249 27.478 12.25 27.7116V36.8256C12.25 37.3069 12.495 37.7566 12.8905 37.9981L20.363 42.5551C20.5557 42.6733 20.7774 42.7359 21.0035 42.7359C21.2296 42.7359 21.4513 42.6733 21.644 42.5551L29.1165 37.9981C29.3137 37.8727 29.4758 37.6994 29.5878 37.4944C29.6998 37.2894 29.758 37.0593 29.757 36.8256V20.5401L29.8498 20.4824L34.9948 17.3464L40.2343 20.5401V26.9276L34.9948 30.1231L31.5438 28.0196V32.3071L34.3543 34.0186C34.547 34.1368 34.7687 34.1994 34.9948 34.1994C35.2209 34.1994 35.4425 34.1368 35.6353 34.0186L35.637 34.0204Z" fill="url(#paint1_linear_115_8557)"/>
</g>
<defs>
<linearGradient id="paint0_linear_115_8557" x1="-0.182" y1="46.4677" x2="56.679" y2="17.2322" gradientUnits="userSpaceOnUse">
<stop stop-color="#A726C1"/>
<stop offset="0.88" stop-color="#803BDF"/>
<stop offset="1" stop-color="#7B3FE4"/>
</linearGradient>
<linearGradient id="paint1_linear_115_8557" x1="28" y1="13.2671" x2="28" y2="72.7094" gradientUnits="userSpaceOnUse">
<stop stop-color="white"/>
<stop offset="1" stop-color="white" stop-opacity="0"/>
</linearGradient>
<clipPath id="clip0_115_8557">
<rect width="56" height="56" rx="28" fill="white"/>
</clipPath>
</defs>
</svg>
