<svg width="56" height="56" viewBox="0 0 56 56" fill="none" xmlns="http://www.w3.org/2000/svg">
<g clip-path="url(#clip0_115_8518)">
<rect width="56" height="56" rx="28" fill="#000B09"/>
<path fill-rule="evenodd" clip-rule="evenodd" d="M10.1818 0C7.48143 0 4.89165 1.07272 2.98219 2.98219C1.07272 4.89165 0 7.48143 0 10.1818V45.8182C0 48.5186 1.07272 51.1083 2.98219 53.0178C4.89165 54.9273 7.48143 56 10.1818 56H45.8182C48.5186 56 51.1083 54.9273 53.0178 53.0178C54.9273 51.1083 56 48.5186 56 45.8182V10.1818C56 7.48143 54.9273 4.89165 53.0178 2.98219C51.1083 1.07272 48.5186 0 45.8182 0H10.1818ZM28 13.6513C25.9826 13.6508 23.9878 14.0759 22.1459 14.8987C20.3039 15.7215 18.6562 16.9235 17.3103 18.4263C15.9643 19.929 14.9505 21.6988 14.3349 23.6199C13.7194 25.5411 13.5159 27.5705 13.7378 29.5756L48.3636 12.264V15.9651L7.63636 36.3287V32.6276L9.27818 31.8055C10.3727 31.2607 10.9556 30.0618 10.8971 28.8425C10.7374 25.6205 11.4911 22.4188 13.0715 19.6064C14.6519 16.794 16.9946 14.4853 19.8297 12.9461C22.6649 11.407 25.8772 10.7 29.0966 10.9067C32.316 11.1135 35.4115 12.2254 38.0265 14.1145L35.1247 15.5425C32.9563 14.2994 30.4995 13.6473 28 13.6513ZM28 42.3462C30.0174 42.3466 32.0122 41.9216 33.8541 41.0988C35.6961 40.276 37.3438 39.074 38.6897 37.5712C40.0357 36.0684 41.0495 34.2987 41.6651 32.3775C42.2806 30.4563 42.4841 28.427 42.2622 26.4218L7.63636 43.736V40.0324L48.3636 19.6687V23.3724L46.7218 24.192C45.6273 24.7393 45.0444 25.9356 45.1029 27.1575C45.2627 30.3955 44.5 33.6125 42.9034 36.4341C41.3068 39.2558 38.9419 41.5662 36.0839 43.0966C33.2258 44.6271 29.992 45.3148 26.7585 45.0796C23.525 44.8445 20.4247 43.6962 17.8182 41.7684L20.5978 40.292C22.832 41.6404 25.393 42.3509 28.0025 42.3462H28Z" fill="white"/>
</g>
<defs>
<clipPath id="clip0_115_8518">
<rect width="56" height="56" rx="28" fill="white"/>
</clipPath>
</defs>
</svg>
