<svg width="27" height="29" viewBox="0 0 27 29" fill="none" xmlns="http://www.w3.org/2000/svg">
<path d="M25.7 6.33091L14.7 0.308411C14.3324 0.106091 13.9196 0 13.5 0C13.0804 0 12.6676 0.106091 12.3 0.308411L1.3 6.32966C0.906397 6.54502 0.578004 6.86234 0.349271 7.24833C0.120538 7.63431 -0.000103799 8.07474 6.701e-08 8.52341V20.4759C-0.000103799 20.9246 0.120538 21.365 0.349271 21.751C0.578004 22.137 0.906397 22.4543 1.3 22.6697L12.3 28.6909C12.6675 28.8935 13.0804 28.9997 13.5 28.9997C13.9196 28.9997 14.3325 28.8935 14.7 28.6909L25.7 22.6684C26.0934 22.4532 26.4217 22.136 26.6504 21.7503C26.8791 21.3645 26.9999 20.9244 27 20.4759V8.52341C26.9999 8.07495 26.8791 7.63479 26.6504 7.24904C26.4217 6.86329 26.0934 6.54617 25.7 6.33091ZM18 17.4997V23.4647L15 25.1072V15.3884L24 10.4609V13.3259L18.78 16.1834C18.5438 16.3126 18.3468 16.503 18.2096 16.7346C18.0723 16.9662 17.9999 17.2305 18 17.4997ZM8.22 16.1834L3 13.3259V10.4609L12 15.3884V25.1072L9 23.4647V17.4997C9.00006 17.2305 8.92768 16.9662 8.79044 16.7346C8.6532 16.503 8.45616 16.3126 8.22 16.1834ZM7.8925 6.14091L12.78 8.81591C13.0006 8.93726 13.2482 9.00089 13.5 9.00089C13.7518 9.00089 13.9994 8.93726 14.22 8.81591L19.1075 6.14091L22.375 7.93091L13.5 12.7897L4.625 7.93091L7.8925 6.14091ZM13.5 3.07091L15.9837 4.43091L13.5 5.79091L11.0162 4.43091L13.5 3.07091ZM3 16.7497L6 18.3922V21.8259L3 20.1797V16.7497ZM21 21.8259V18.3884L24 16.7497V20.1834L21 21.8259Z" fill="white"/>
</svg>
