<svg width="27" height="26" viewBox="0 0 27 26" fill="none" xmlns="http://www.w3.org/2000/svg">
<path d="M22.5009 16.5C21.785 16.4995 21.0794 16.671 20.4434 17L17.7697 14.92C17.9151 14.4883 17.9931 14.0367 18.0009 13.5812L19.2947 13.1512C20.0264 13.8943 20.9935 14.3601 22.0307 14.4691C23.0678 14.5781 24.1106 14.3235 24.9808 13.7488C25.851 13.1741 26.4946 12.315 26.8016 11.3183C27.1085 10.3217 27.0598 9.24937 26.6638 8.28467C26.2677 7.31996 25.5489 6.52275 24.6302 6.02932C23.7114 5.53589 22.6498 5.37686 21.6269 5.57943C20.6039 5.78199 19.683 6.33356 19.0216 7.13987C18.3603 7.94617 17.9995 8.95715 18.0009 10C18.0009 10.1387 18.0084 10.2762 18.0209 10.4125L17.0484 10.7362C16.6281 10.1961 16.0901 9.759 15.4754 9.45813C14.8606 9.15726 14.1854 9.00058 13.5009 9C13.3759 9 13.2659 9 13.1497 9.015L12.5934 7.765C13.3527 7.04491 13.8372 6.08275 13.9637 5.04404C14.0902 4.00533 13.8508 2.955 13.2866 2.07373C12.7224 1.19247 11.8687 0.535364 10.8725 0.215458C9.87617 -0.104447 8.79954 -0.0671531 7.82778 0.320924C6.85601 0.709001 6.04987 1.4236 5.54802 2.34179C5.04617 3.25998 4.87999 4.32436 5.07807 5.35183C5.27614 6.3793 5.82609 7.30563 6.63331 7.97145C7.44053 8.63728 8.45456 9.00098 9.50094 9C9.62594 9 9.73594 9 9.85219 8.985L10.4084 10.235C9.74944 10.8571 9.29417 11.6641 9.10251 12.5498C8.91086 13.4356 8.9918 14.3586 9.33469 15.1975L6.67469 17.5612C5.74531 17.0482 4.66447 16.8803 3.62323 17.0871C2.582 17.294 1.64741 17.8622 0.984663 18.6915C0.321919 19.5208 -0.026302 20.5577 0.0015502 21.6189C0.0294024 22.6802 0.431535 23.6974 1.13687 24.4908C1.8422 25.2841 2.80531 25.8026 3.85596 25.9546C4.90662 26.1065 5.97716 25.8821 6.87835 25.321C7.77955 24.7599 8.45337 23.8983 8.78072 22.8885C9.10807 21.8786 9.06785 20.7856 8.66719 19.8025L11.3272 17.4387C12.0362 17.8311 12.8382 18.0242 13.6481 17.9976C14.4579 17.9709 15.2455 17.7256 15.9272 17.2875L18.3759 19.195C17.9872 20.0828 17.8955 21.0723 18.1144 22.0164C18.3333 22.9605 18.8511 23.8087 19.5908 24.4348C20.3306 25.0609 21.2527 25.4315 22.22 25.4914C23.1872 25.5513 24.148 25.2973 24.9593 24.7672C25.7707 24.2372 26.3892 23.4593 26.7229 22.5495C27.0566 21.6396 27.0876 20.6463 26.8114 19.7174C26.5352 18.7884 25.9664 17.9735 25.1898 17.3938C24.4131 16.8141 23.4701 16.5006 22.5009 16.5ZM22.5009 8.5C22.7976 8.5 23.0876 8.58797 23.3343 8.75279C23.581 8.91762 23.7732 9.15189 23.8868 9.42597C24.0003 9.70006 24.03 10.0017 23.9721 10.2926C23.9142 10.5836 23.7714 10.8509 23.5616 11.0607C23.3518 11.2704 23.0846 11.4133 22.7936 11.4712C22.5026 11.5291 22.201 11.4993 21.9269 11.3858C21.6528 11.2723 21.4186 11.08 21.2537 10.8334C21.0889 10.5867 21.0009 10.2967 21.0009 10C21.0009 9.60217 21.159 9.22064 21.4403 8.93934C21.7216 8.65803 22.1031 8.5 22.5009 8.5ZM8.00094 4.5C8.00094 4.20333 8.08892 3.91332 8.25374 3.66664C8.41856 3.41997 8.65283 3.22771 8.92692 3.11418C9.20101 3.00065 9.50261 2.97094 9.79358 3.02882C10.0846 3.0867 10.3518 3.22956 10.5616 3.43934C10.7714 3.64912 10.9142 3.91639 10.9721 4.20736C11.03 4.49833 11.0003 4.79993 10.8868 5.07402C10.7732 5.34811 10.581 5.58238 10.3343 5.7472C10.0876 5.91203 9.79762 6 9.50094 6C9.10312 6 8.72159 5.84196 8.44028 5.56066C8.15898 5.27935 8.00094 4.89782 8.00094 4.5ZM4.50094 23C4.20427 23 3.91426 22.912 3.66759 22.7472C3.42091 22.5824 3.22866 22.3481 3.11512 22.074C3.00159 21.7999 2.97189 21.4983 3.02977 21.2074C3.08764 20.9164 3.2305 20.6491 3.44028 20.4393C3.65006 20.2296 3.91734 20.0867 4.20831 20.0288C4.49928 19.9709 4.80088 20.0006 5.07497 20.1142C5.34906 20.2277 5.58333 20.42 5.74815 20.6666C5.91297 20.9133 6.00094 21.2033 6.00094 21.5C6.00094 21.8978 5.84291 22.2794 5.5616 22.5607C5.2803 22.842 4.89877 23 4.50094 23ZM12.0009 13.5C12.0009 13.2033 12.0889 12.9133 12.2537 12.6666C12.4186 12.42 12.6528 12.2277 12.9269 12.1142C13.201 12.0006 13.5026 11.9709 13.7936 12.0288C14.0846 12.0867 14.3518 12.2296 14.5616 12.4393C14.7714 12.6491 14.9142 12.9164 14.9721 13.2074C15.03 13.4983 15.0003 13.7999 14.8868 14.074C14.7732 14.3481 14.581 14.5824 14.3343 14.7472C14.0876 14.912 13.7976 15 13.5009 15C13.1031 15 12.7216 14.842 12.4403 14.5607C12.159 14.2794 12.0009 13.8978 12.0009 13.5ZM22.5009 22.5C22.2043 22.5 21.9143 22.412 21.6676 22.2472C21.4209 22.0824 21.2287 21.8481 21.1151 21.574C21.0016 21.2999 20.9719 20.9983 21.0298 20.7074C21.0876 20.4164 21.2305 20.1491 21.4403 19.9393C21.6501 19.7296 21.9173 19.5867 22.2083 19.5288C22.4993 19.4709 22.8009 19.5006 23.075 19.6142C23.3491 19.7277 23.5833 19.92 23.7481 20.1666C23.913 20.4133 24.0009 20.7033 24.0009 21C24.0009 21.3978 23.8429 21.7794 23.5616 22.0607C23.2803 22.342 22.8988 22.5 22.5009 22.5Z" fill="white"/>
</svg>
