<svg width="25" height="25" viewBox="0 0 25 25" fill="none" xmlns="http://www.w3.org/2000/svg">
<path d="M9.96125 2.98538C9.79257 2.84438 9.59496 2.74218 9.38241 2.68602C9.16986 2.62986 8.94756 2.6211 8.73125 2.66038L1.23125 4.02413C0.885636 4.08707 0.573076 4.26932 0.348068 4.5391C0.12306 4.80888 -0.000122133 5.14908 9.08672e-08 5.50038V10.0004C9.08672e-08 10.3982 0.158035 10.7797 0.43934 11.061C0.720645 11.3423 1.10218 11.5004 1.5 11.5004H9C9.39782 11.5004 9.77936 11.3423 10.0607 11.061C10.342 10.7797 10.5 10.3982 10.5 10.0004V4.13663C10.5 3.917 10.4517 3.70005 10.3586 3.50112C10.2655 3.30219 10.1299 3.12613 9.96125 2.98538ZM7.5 8.50038H3V6.75038L7.5 5.93288V8.50038ZM24.4613 0.34913C24.2926 0.208131 24.095 0.105933 23.8824 0.0497707C23.6699 -0.00639154 23.4476 -0.0151447 23.2313 0.0241304L13.7313 1.75038C13.3854 1.81336 13.0727 1.99579 12.8477 2.26583C12.6226 2.53587 12.4996 2.87637 12.5 3.22788V10.0004C12.5 10.3982 12.658 10.7797 12.9393 11.061C13.2206 11.3423 13.6022 11.5004 14 11.5004H23.5C23.8978 11.5004 24.2794 11.3423 24.5607 11.061C24.842 10.7797 25 10.3982 25 10.0004V1.50038C25 1.28075 24.9517 1.0638 24.8586 0.864869C24.7655 0.665939 24.6299 0.48988 24.4613 0.34913ZM22 8.50038H15.5V4.47913L22 3.29788V8.50038ZM9 13.5004H1.5C1.10218 13.5004 0.720645 13.6584 0.43934 13.9397C0.158035 14.221 9.08672e-08 14.6026 9.08672e-08 15.0004V19.5004C-0.000122133 19.8517 0.12306 20.1919 0.348068 20.4617C0.573076 20.7314 0.885636 20.9137 1.23125 20.9766L8.73125 22.3404C8.94748 22.3798 9.16973 22.3711 9.38226 22.3151C9.59479 22.2591 9.79242 22.1571 9.96116 22.0162C10.1299 21.8754 10.2656 21.6992 10.3587 21.5001C10.4519 21.301 10.5001 21.0839 10.5 20.8641V15.0004C10.5 14.6026 10.342 14.221 10.0607 13.9397C9.77936 13.6584 9.39782 13.5004 9 13.5004ZM7.5 19.0666L3 18.2504V16.5004H7.5V19.0666ZM23.5 13.5004H14C13.6022 13.5004 13.2206 13.6584 12.9393 13.9397C12.658 14.221 12.5 14.6026 12.5 15.0004V21.7729C12.4996 22.1244 12.6226 22.4649 12.8477 22.7349C13.0727 23.005 13.3854 23.1874 13.7313 23.2504L23.2313 24.9779C23.4476 25.0173 23.6699 25.0086 23.8826 24.9525C24.0952 24.8965 24.2929 24.7943 24.4616 24.6533C24.6304 24.5124 24.7661 24.336 24.8591 24.1368C24.9522 23.9375 25.0003 23.7203 25 23.5004V15.0004C25 14.6026 24.842 14.221 24.5607 13.9397C24.2794 13.6584 23.8978 13.5004 23.5 13.5004ZM22 21.7029L15.5 20.5216V16.5004H22V21.7029Z" fill="white"/>
</svg>
