<svg width="29" height="29" viewBox="0 0 29 29" fill="none" xmlns="http://www.w3.org/2000/svg">
<path d="M28.5626 0.441183C28.4232 0.301343 28.2577 0.190388 28.0753 0.114679C27.893 0.0389714 27.6975 0 27.5001 0C27.3027 0 27.1072 0.0389714 26.9249 0.114679C26.7425 0.190388 26.577 0.301343 26.4376 0.441183L20.2439 6.63868L19.9264 6.31993C19.0816 5.47761 17.9374 5.0046 16.7445 5.0046C15.5516 5.0046 14.4073 5.47761 13.5626 6.31993L11.0014 8.87743L10.5626 8.43743C10.4231 8.2979 10.2574 8.18722 10.0751 8.11171C9.89282 8.0362 9.69743 7.99733 9.5001 7.99733C9.10159 7.99733 8.71939 8.15564 8.4376 8.43743C8.29807 8.57696 8.18739 8.74261 8.11188 8.92491C8.03637 9.10722 7.9975 9.30261 7.9975 9.49993C7.9975 9.89845 8.15581 10.2806 8.4376 10.5624L8.87635 11.0024L6.31885 13.5637C5.475 14.4076 5.00094 15.5521 5.00094 16.7456C5.00094 17.939 5.475 19.0835 6.31885 19.9274L6.6376 20.2449L0.440102 26.4412C0.158309 26.723 0 27.1052 0 27.5037C0 27.9022 0.158309 28.2844 0.440102 28.5662C0.721895 28.848 1.10409 29.0063 1.5026 29.0063C1.90112 29.0063 2.28331 28.848 2.5651 28.5662L8.76135 22.3687L9.07885 22.6874C9.92373 23.5294 11.0679 24.0023 12.2607 24.0023C13.4535 24.0023 14.5977 23.5294 15.4426 22.6874L18.0014 20.1274L18.4401 20.5674C18.7219 20.8492 19.1041 21.0075 19.5026 21.0075C19.9011 21.0075 20.2833 20.8492 20.5651 20.5674C20.8469 20.2856 21.0052 19.9034 21.0052 19.5049C21.0052 19.1064 20.8469 18.7242 20.5651 18.4424L20.1264 18.0024L22.6876 15.4412C23.5315 14.5973 24.0055 13.4527 24.0055 12.2593C24.0055 11.0659 23.5315 9.92134 22.6876 9.07743L22.3689 8.75993L28.5664 2.56368C28.7056 2.42413 28.8159 2.2585 28.8911 2.07627C28.9662 1.89404 29.0048 1.69878 29.0044 1.50166C29.0041 1.30453 28.9649 1.10941 28.8891 0.927447C28.8132 0.745483 28.7023 0.580246 28.5626 0.441183ZM13.3189 20.5662C13.1795 20.706 13.0139 20.817 12.8316 20.8927C12.6493 20.9684 12.4538 21.0074 12.2564 21.0074C12.0589 21.0074 11.8635 20.9684 11.6811 20.8927C11.4988 20.817 11.3332 20.706 11.1939 20.5662L8.4401 17.8062C8.30026 17.6668 8.18931 17.5012 8.1136 17.3189C8.03789 17.1366 7.99892 16.9411 7.99892 16.7437C7.99892 16.5463 8.03789 16.3508 8.1136 16.1685C8.18931 15.9861 8.30026 15.8205 8.4401 15.6812L11.0014 13.1274L15.8764 18.0024L13.3189 20.5662ZM20.5689 13.3224L18.0014 15.8774L13.1264 11.0024L15.6876 8.44118C15.827 8.30134 15.9925 8.19039 16.1749 8.11468C16.3572 8.03897 16.5527 8 16.7501 8C16.9475 8 17.143 8.03897 17.3253 8.11468C17.5077 8.19039 17.6732 8.30134 17.8126 8.44118L20.5701 11.1987C20.7099 11.338 20.8209 11.5036 20.8966 11.686C20.9723 11.8683 21.0113 12.0638 21.0113 12.2612C21.0113 12.4586 20.9723 12.6541 20.8966 12.8364C20.8209 13.0187 20.7099 13.1843 20.5701 13.3237L20.5689 13.3224ZM9.1601 2.67368C8.98886 2.31877 8.96416 1.91073 9.09134 1.53775C9.21852 1.16478 9.48736 0.856829 9.83975 0.680468C10.1921 0.504107 10.5998 0.4735 10.9746 0.595263C11.3493 0.717027 11.6612 0.981379 11.8426 1.33118L12.8426 3.33118C12.9341 3.50766 12.9897 3.70058 13.006 3.89872C13.0223 4.09686 12.9991 4.29627 12.9377 4.48535C12.8762 4.67443 12.7778 4.84942 12.6482 5.00013C12.5185 5.15084 12.3602 5.27427 12.1824 5.36325C12.0046 5.45223 11.8109 5.50497 11.6125 5.51842C11.4142 5.53187 11.2151 5.50576 11.027 5.44159C10.8388 5.37743 10.6653 5.2765 10.5164 5.14467C10.3676 5.01284 10.2465 4.85274 10.1601 4.67368L9.1601 2.67368ZM0.660102 9.83118C0.83816 9.47549 1.15021 9.20509 1.52761 9.07944C1.90502 8.9538 2.31687 8.9832 2.6726 9.16118L4.6726 10.1612C4.85166 10.2476 5.01176 10.3687 5.14359 10.5175C5.27542 10.6663 5.37635 10.8399 5.44051 11.0281C5.50467 11.2162 5.53079 11.4153 5.51734 11.6136C5.50389 11.812 5.45115 12.0057 5.36217 12.1835C5.27319 12.3613 5.14976 12.5196 4.99905 12.6493C4.84834 12.7789 4.67335 12.8773 4.48427 12.9388C4.29519 13.0002 4.09578 13.0234 3.89764 13.0071C3.6995 12.9908 3.50658 12.9352 3.3301 12.8437L1.3301 11.8437C0.97441 11.6656 0.704007 11.3536 0.578361 10.9762C0.452716 10.5988 0.482118 10.1869 0.660102 9.83118ZM28.3426 19.1737C28.1645 19.5294 27.8525 19.7998 27.4751 19.9254C27.0977 20.0511 26.6858 20.0217 26.3301 19.8437L24.3301 18.8437C23.9803 18.6622 23.7159 18.3504 23.5942 17.9756C23.4724 17.6009 23.503 17.1932 23.6794 16.8408C23.8557 16.4884 24.1637 16.2196 24.5367 16.0924C24.9097 15.9652 25.3177 15.9899 25.6726 16.1612L27.6726 17.1612C28.0283 17.3392 28.2987 17.6513 28.4243 18.0287C28.55 18.4061 28.5206 18.818 28.3426 19.1737ZM19.8426 26.3312C19.9341 26.5077 19.9897 26.7006 20.006 26.8987C20.0223 27.0969 19.9991 27.2963 19.9377 27.4854C19.8762 27.6744 19.7778 27.8494 19.6482 28.0001C19.5185 28.1508 19.3602 28.2743 19.1824 28.3633C19.0046 28.4522 18.8109 28.505 18.6125 28.5184C18.4142 28.5319 18.2151 28.5058 18.027 28.4416C17.8388 28.3774 17.6653 28.2765 17.5164 28.1447C17.3676 28.0128 17.2465 27.8527 17.1601 27.6737L16.1601 25.6737C15.9889 25.3188 15.9642 24.9107 16.0913 24.5378C16.2185 24.1648 16.4874 23.8568 16.8398 23.6805C17.1921 23.5041 17.5998 23.4735 17.9746 23.5953C18.3493 23.717 18.6612 23.9814 18.8426 24.3312L19.8426 26.3312Z" fill="#2DD4BF"/>
</svg>
